<svg version="1.1" id="Layer_1" xmlns="http://www.w3.org/2000/svg" xmlns:xlink="http://www.w3.org/1999/xlink" x="0px" y="0px"
	 width="100%" viewBox="0 0 1147 1146" enable-background="new 0 0 1147 1146" xml:space="preserve">
<path fill="#8B0035" opacity="1.000000" stroke="none" 
	d="
M596.000000,1147.000000 
	C578.979126,1147.000000 561.958191,1147.000000 544.360229,1146.656250 
	C542.844238,1146.152710 541.905212,1145.993042 540.687988,1145.568848 
	C533.044800,1144.195679 525.643860,1143.283936 518.321045,1141.944824 
	C481.166748,1135.150757 446.403595,1121.983887 413.980408,1102.598145 
	C382.104034,1083.539429 354.634644,1059.382446 331.264038,1030.615601 
	C313.778198,1009.092346 299.424500,985.582886 288.448029,960.062256 
	C284.981232,952.001831 281.414673,943.984375 277.940857,935.549438 
	C277.972321,934.651978 278.085907,934.104919 277.922363,933.659607 
	C268.498047,907.993225 263.840271,881.254822 262.268860,854.174500 
	C261.036835,832.942993 261.541779,811.592712 264.836426,790.363892 
	C267.452118,773.509949 270.884918,756.935669 275.966797,740.667542 
	C283.478516,716.621094 293.893036,693.926392 306.898346,672.359375 
	C316.595551,656.278259 327.624207,641.261719 340.131134,627.228577 
	C353.663269,612.045105 368.177521,598.007751 384.498749,585.858826 
	C389.766266,581.937927 395.008759,577.983398 400.487671,573.875610 
	C399.384338,573.012207 398.744873,572.518921 398.112854,572.016235 
	C385.730255,562.167908 372.822754,552.901428 361.096741,542.325012 
	C345.689270,528.428101 332.186493,512.711426 320.065216,495.746643 
	C305.856354,475.860107 294.350128,454.604553 284.964478,432.111816 
	C277.794342,414.928650 271.832764,397.315094 268.645538,378.986450 
	C265.799408,362.619415 263.025055,346.090332 262.314484,329.542755 
	C261.572296,312.257202 262.678528,294.806213 264.211975,277.537231 
	C265.370483,264.490601 268.158630,251.551605 270.818176,238.688065 
	C272.672699,229.718369 275.536896,220.957428 278.243958,211.900269 
	C281.989319,203.421570 285.324860,195.095169 288.912872,186.879044 
	C302.409424,155.973648 320.652893,128.095123 343.391022,103.251114 
	C366.003571,78.544357 391.772980,57.692112 421.073364,41.280178 
	C448.683960,25.814730 477.833588,14.453005 508.834595,8.018652 
	C519.490906,5.806911 530.252563,4.102708 541.320068,2.092397 
	C542.449402,1.678765 543.224731,1.339381 544.000000,0.999999 
	C561.020874,1.000000 578.041809,1.000000 595.787231,1.309277 
	C603.365540,2.364418 610.219238,3.110282 617.476196,3.942640 
	C620.630981,4.406368 623.453674,4.510311 626.122742,5.204701 
	C645.060791,10.131655 664.587952,13.547958 682.778564,20.466251 
	C769.715454,53.530300 830.664062,113.660156 865.908081,199.787949 
	C867.585693,203.887711 869.486389,207.896225 871.159668,212.260132 
	C871.352417,213.067535 871.668762,213.562057 871.993774,214.029449 
	C872.002380,214.002319 871.946289,214.011887 871.970581,214.410583 
	C873.312378,219.119339 874.725220,223.402878 875.931030,227.743958 
	C881.599548,248.150726 885.295227,268.951233 886.851868,290.037964 
	C887.684998,301.324036 887.389404,312.739166 886.893799,324.065033 
	C886.370789,336.018433 885.759521,348.059631 883.815308,359.836060 
	C881.343750,374.806519 878.061584,389.702606 874.110107,404.356018 
	C867.338379,429.468323 856.343811,452.882721 842.921997,475.094299 
	C831.423828,494.122498 818.430054,512.088745 802.627563,527.870361 
	C795.401489,535.086853 788.599487,542.797363 780.862427,549.415649 
	C770.672729,558.132019 759.751831,565.993713 750.124512,573.463135 
	C765.494507,586.579285 781.448608,599.557068 796.611206,613.401733 
	C804.201538,620.332275 810.333252,628.856934 817.150940,636.637573 
	C830.385315,651.741150 841.082336,668.619202 850.515625,686.212463 
	C865.804504,714.726807 876.355530,744.917053 882.245239,776.880676 
	C885.800049,796.172668 887.346863,815.558289 887.761902,835.007385 
	C888.030273,847.582947 886.419067,860.258423 884.884888,872.795410 
	C883.447998,884.538330 881.316345,896.223145 878.900879,907.810669 
	C877.061218,916.636047 874.298523,925.269043 871.974609,933.992493 
	C872.002625,933.997375 871.985535,933.943115 871.669922,934.052979 
	C871.330444,934.792725 871.306641,935.422485 871.121033,936.375488 
	C869.298462,940.444519 867.493530,944.133911 865.999207,947.945068 
	C850.486389,987.508423 827.908203,1022.543518 798.226624,1052.908691 
	C764.047058,1087.875244 723.745239,1113.410522 677.637390,1129.655640 
	C657.979370,1136.581543 637.745117,1141.323730 616.651245,1144.086182 
	C613.473450,1144.347900 610.709106,1144.582275 607.971436,1144.994141 
	C603.970886,1145.595947 599.989502,1146.325073 596.000000,1147.000000 
M373.005066,364.410034 
	C378.166443,382.820984 384.888489,400.549316 394.540253,417.175049 
	C407.280975,439.121704 423.394470,458.189514 442.910370,474.245300 
	C458.225281,486.844879 475.136536,497.010925 493.431549,504.913300 
	C514.019043,513.805969 535.519897,519.354431 557.730042,520.751282 
	C579.228394,522.103394 600.789429,521.352661 622.008667,516.082581 
	C655.296082,507.815094 685.275757,493.057495 710.912476,470.367432 
	C733.009888,450.809937 750.714722,427.796844 763.261292,400.693939 
	C776.070435,373.023651 781.799316,344.016418 782.858398,313.900604 
	C783.133118,306.087921 782.124939,298.141357 780.893372,290.385315 
	C779.041748,278.723877 777.235657,266.962646 774.056702,255.623306 
	C766.770081,229.632126 754.459839,206.113174 737.553650,184.936172 
	C724.320312,168.359879 709.152527,153.977264 691.712952,141.980270 
	C673.458618,129.422775 653.717529,119.973839 632.347473,113.978706 
	C615.653015,109.295273 598.758362,105.855118 581.331726,106.041458 
	C572.075012,106.140442 562.729614,105.961311 553.591614,107.171432 
	C541.417175,108.783669 529.255737,111.036476 517.355774,114.064140 
	C493.256927,120.195564 471.527161,131.567871 451.522369,146.187469 
	C435.894714,157.608215 422.125214,171.070999 410.304871,186.384827 
	C398.088959,202.211105 388.146851,219.410858 380.981903,238.139053 
	C372.800018,259.525421 367.623596,281.585938 367.095154,304.528839 
	C366.863098,314.603149 367.142700,324.754028 368.150085,334.773621 
	C369.121246,344.433136 371.329437,353.968262 373.005066,364.410034 
M497.054749,641.437012 
	C493.969360,642.839905 490.870636,644.214294 487.800781,645.650452 
	C472.300903,652.901978 457.988281,661.953857 444.578094,672.653931 
	C431.213531,683.317749 419.367981,695.378601 409.095367,708.915894 
	C397.415283,724.307983 387.879242,740.991821 380.947357,759.126343 
	C372.762268,780.539429 367.666046,802.598633 367.095978,825.535706 
	C366.853912,835.276001 367.195862,845.087952 368.133026,854.784180 
	C369.052887,864.301086 370.535034,873.836182 372.709412,883.143982 
	C377.061188,901.772766 384.024170,919.421936 393.505707,936.139832 
	C406.179169,958.485901 422.237549,977.988342 441.966858,994.287903 
	C457.237610,1006.903809 473.963654,1017.293823 492.317719,1025.183350 
	C513.689087,1034.369751 535.887573,1040.030884 558.924133,1041.781494 
	C570.916809,1042.692993 583.084778,1041.416626 595.168396,1040.982666 
	C610.064392,1040.447754 624.342041,1036.628662 638.419006,1032.147339 
	C659.064453,1025.575195 678.141663,1015.900818 695.724060,1003.108032 
	C715.435181,988.766541 732.201050,971.699280 746.064514,951.682983 
	C755.704773,937.764282 763.474976,922.848389 769.378479,907.045593 
	C776.806274,887.162659 781.629028,866.644653 781.979797,845.279846 
	C782.105835,837.601562 782.559326,829.868835 781.867737,822.251343 
	C780.852905,811.073914 779.532654,799.857422 777.291138,788.872192 
	C772.800110,766.862732 764.123657,746.415527 752.626831,727.114563 
	C739.768799,705.528442 722.968323,687.318604 703.723450,671.524597 
	C688.432312,658.975281 671.137390,649.420166 652.728882,641.882324 
	C635.996094,635.030640 618.732483,630.102966 600.850098,628.210510 
	C587.708862,626.819885 574.349060,626.781738 561.118896,627.189148 
	C551.895203,627.473145 542.577637,628.886047 533.569092,630.956726 
	C521.492188,633.732788 509.673340,637.631226 497.054749,641.437012 
z"/>
<path fill="#E60021" opacity="1.000000" stroke="none" 
	d="
M277.893738,935.947266 
	C281.414673,943.984375 284.981232,952.001831 288.448029,960.062256 
	C299.424500,985.582886 313.778198,1009.092346 331.264038,1030.615601 
	C354.634644,1059.382446 382.104034,1083.539429 413.980408,1102.598145 
	C446.403595,1121.983887 481.166748,1135.150757 518.321045,1141.944824 
	C525.643860,1143.283936 533.044800,1144.195679 540.232178,1145.642700 
	C531.706909,1145.322266 523.324219,1144.951660 515.019287,1143.941284 
	C500.464752,1142.170654 485.764526,1140.901611 471.474609,1137.808716 
	C447.331940,1132.583130 423.229340,1126.892456 399.532440,1119.954346 
	C365.633270,1110.029053 333.329987,1095.901611 302.444244,1078.737305 
	C288.161835,1070.800049 273.754456,1062.888184 260.379089,1053.565552 
	C240.906723,1039.993286 222.037537,1025.507568 203.428253,1010.758911 
	C185.812332,996.797546 169.396774,981.420288 154.800659,964.251770 
	C141.015991,948.037598 127.044060,931.955750 113.904533,915.226624 
	C96.655952,893.265869 81.816902,869.608582 69.118317,844.763000 
	C59.405918,825.760071 50.035061,806.473389 42.219772,786.640137 
	C34.074417,765.969238 27.278582,744.689758 21.204281,723.303833 
	C16.394573,706.370178 13.084642,688.959106 10.000239,671.601624 
	C7.065894,655.088562 4.903847,638.410767 3.141120,621.727234 
	C2.048231,611.383484 2.353549,600.893372 1.959024,590.471741 
	C1.927419,589.636902 1.332922,588.823425 1.000003,588.000000 
	C1.000000,578.979126 1.000000,569.958191 1.398459,560.284912 
	C3.197318,540.276855 4.200893,520.881470 6.132290,501.578979 
	C7.507707,487.832977 9.588513,474.101196 12.346830,460.565277 
	C15.279418,446.174164 19.244947,431.985229 23.002550,417.772308 
	C30.822374,388.194153 41.577122,359.650604 54.582603,332.003906 
	C69.371910,300.565063 86.612564,270.540070 106.859406,242.201462 
	C123.360626,219.105469 141.430664,197.376511 160.866272,176.769943 
	C168.936310,168.213715 177.654617,160.251358 186.306335,152.266174 
	C195.008789,144.234131 203.535614,135.901642 212.956818,128.782547 
	C230.043900,115.870789 247.545532,103.480919 265.226898,91.389091 
	C287.063538,76.455620 310.451355,64.222115 334.447968,53.121223 
	C364.561249,39.190735 395.573090,27.738390 427.774384,19.739470 
	C444.101501,15.683752 460.604553,12.275056 477.128723,9.097136 
	C487.039734,7.191053 497.120880,6.067544 507.169128,5.004535 
	C518.409058,3.815461 529.698303,3.092466 540.966064,2.166645 
	C530.252563,4.102708 519.490906,5.806911 508.834595,8.018652 
	C477.833588,14.453005 448.683960,25.814730 421.073364,41.280178 
	C391.772980,57.692112 366.003571,78.544357 343.391022,103.251114 
	C320.652893,128.095123 302.409424,155.973648 288.912872,186.879044 
	C285.324860,195.095169 281.989319,203.421570 277.911499,211.956589 
	C276.579468,212.917999 275.885803,213.632690 275.166351,214.320465 
	C260.159332,228.667709 244.760681,242.632935 230.276337,257.489624 
	C220.583588,267.431519 211.989899,278.478546 203.254852,289.313599 
	C185.174622,311.740631 170.303864,336.294159 157.131470,361.817078 
	C144.301483,386.676544 133.922119,412.627258 126.050369,439.497070 
	C118.520691,465.199249 112.361916,491.227997 110.031738,517.993835 
	C108.507469,535.502502 106.719780,553.023499 106.203926,570.572937 
	C105.827202,583.388794 106.890915,596.301636 108.106308,609.095886 
	C109.648659,625.331970 111.513206,641.569275 114.108009,657.665955 
	C117.867851,680.989868 124.182343,703.685120 131.859314,726.069092 
	C142.660263,757.561768 156.801865,787.355713 173.887878,815.909973 
	C191.390991,845.161316 212.002716,872.025635 235.431503,896.606628 
	C248.718338,910.546753 263.684143,922.886597 277.893738,935.947266 
z"/>
<path fill="#FFFFFF" opacity="1.000000" stroke="none" 
	d="
M541.320068,2.092397 
	C529.698303,3.092466 518.409058,3.815461 507.169128,5.004535 
	C497.120880,6.067544 487.039734,7.191053 477.128723,9.097136 
	C460.604553,12.275056 444.101501,15.683752 427.774384,19.739470 
	C395.573090,27.738390 364.561249,39.190735 334.447968,53.121223 
	C310.451355,64.222115 287.063538,76.455620 265.226898,91.389091 
	C247.545532,103.480919 230.043900,115.870789 212.956818,128.782547 
	C203.535614,135.901642 195.008789,144.234131 186.306335,152.266174 
	C177.654617,160.251358 168.936310,168.213715 160.866272,176.769943 
	C141.430664,197.376511 123.360626,219.105469 106.859406,242.201462 
	C86.612564,270.540070 69.371910,300.565063 54.582603,332.003906 
	C41.577122,359.650604 30.822374,388.194153 23.002550,417.772308 
	C19.244947,431.985229 15.279418,446.174164 12.346830,460.565277 
	C9.588513,474.101196 7.507707,487.832977 6.132290,501.578979 
	C4.200893,520.881470 3.197318,540.276855 1.398459,559.816284 
	C1.000000,373.740631 1.000000,187.481262 1.000000,1.000000 
	C181.687500,1.000000 362.375092,1.000000 543.531372,0.999999 
	C543.224731,1.339381 542.449402,1.678765 541.320068,2.092397 
z"/>
<path fill="#FFFFFF" opacity="1.000000" stroke="none" 
	d="
M1.000003,588.468628 
	C1.332922,588.823425 1.927419,589.636902 1.959024,590.471741 
	C2.353549,600.893372 2.048231,611.383484 3.141120,621.727234 
	C4.903847,638.410767 7.065894,655.088562 10.000239,671.601624 
	C13.084642,688.959106 16.394573,706.370178 21.204281,723.303833 
	C27.278582,744.689758 34.074417,765.969238 42.219772,786.640137 
	C50.035061,806.473389 59.405918,825.760071 69.118317,844.763000 
	C81.816902,869.608582 96.655952,893.265869 113.904533,915.226624 
	C127.044060,931.955750 141.015991,948.037598 154.800659,964.251770 
	C169.396774,981.420288 185.812332,996.797546 203.428253,1010.758911 
	C222.037537,1025.507568 240.906723,1039.993286 260.379089,1053.565552 
	C273.754456,1062.888184 288.161835,1070.800049 302.444244,1078.737305 
	C333.329987,1095.901611 365.633270,1110.029053 399.532440,1119.954346 
	C423.229340,1126.892456 447.331940,1132.583130 471.474609,1137.808716 
	C485.764526,1140.901611 500.464752,1142.170654 515.019287,1143.941284 
	C523.324219,1144.951660 531.706909,1145.322266 540.510376,1145.907227 
	C541.905212,1145.993042 542.844238,1146.152710 543.891602,1146.656250 
	C363.071838,1147.000000 182.143707,1147.000000 1.000000,1147.000000 
	C1.000000,960.979187 1.000000,774.958252 1.000003,588.468628 
z"/>
<path fill="#FFFFFF" opacity="1.000000" stroke="none" 
	d="
M606.000000,1.000000 
	C786.596619,1.000000 967.193176,1.000000 1148.000000,1.000000 
	C1148.000000,183.359116 1148.000000,365.718323 1147.764160,548.519531 
	C1147.528320,548.961487 1147.057983,548.907104 1147.033203,548.445679 
	C1146.666016,539.552734 1146.851318,531.059204 1145.869873,522.702820 
	C1143.926147,506.153748 1141.899780,489.576233 1138.864990,473.203735 
	C1135.521606,455.167175 1131.580444,437.195557 1126.876343,419.467163 
	C1118.567505,388.153595 1107.093750,357.925903 1093.233276,328.637665 
	C1077.712402,295.840851 1059.448364,264.590851 1037.679688,235.589783 
	C1024.107178,217.508026 1009.739990,199.903336 994.453247,183.256409 
	C972.425293,159.268417 948.317627,137.371918 922.257507,117.712128 
	C897.625549,99.129845 871.827087,82.390282 844.582581,67.886414 
	C810.425354,49.702515 774.927551,34.688618 737.693420,24.155752 
	C718.334656,18.679516 698.604004,14.477113 678.954651,10.087622 
	C670.557495,8.211777 661.968933,7.075504 653.413452,6.055297 
	C642.669006,4.774060 631.869324,3.956748 620.856445,2.573813 
	C615.746338,1.805595 610.873169,1.402797 606.000000,1.000000 
z"/>
<path fill="#FFFFFF" opacity="1.000000" stroke="none" 
	d="
M1148.000000,599.000000 
	C1148.000000,781.595886 1148.000000,964.191711 1148.000000,1147.000000 
	C967.640869,1147.000000 787.281677,1147.000000 606.659546,1146.614014 
	C611.293457,1145.840820 616.190369,1145.453491 621.542358,1145.037842 
	C624.663574,1145.003174 627.370850,1145.298462 629.989014,1144.941040 
	C646.336243,1142.709351 662.774841,1140.917847 678.967224,1137.843140 
	C696.344421,1134.543335 713.613220,1130.472900 730.698425,1125.880005 
	C760.246521,1117.936646 788.779480,1107.067749 816.513367,1094.139282 
	C849.557556,1078.735352 881.252930,1060.871094 910.322998,1038.883179 
	C930.577881,1023.563049 949.940979,1006.998047 969.014648,990.207642 
	C979.823425,980.692627 989.452759,969.792664 999.229675,959.163635 
	C1008.245422,949.362061 1017.218628,939.454529 1025.386230,928.952637 
	C1046.827026,901.384033 1065.880371,872.213440 1082.282837,841.342529 
	C1094.529175,818.293884 1105.111328,794.469604 1113.853760,769.921509 
	C1127.080322,732.782715 1137.455933,694.836365 1141.947021,655.541565 
	C1144.091919,636.775757 1145.381226,617.912170 1147.293213,599.065674 
	C1147.528320,599.038513 1148.000000,599.000000 1148.000000,599.000000 
z"/>
<path fill="#F2790C" opacity="1.000000" stroke="none" 
	d="
M1148.000000,598.531372 
	C1148.000000,599.000000 1147.528320,599.038513 1147.263916,598.592407 
	C1147.019043,581.733215 1147.038452,565.320129 1147.057983,548.907104 
	C1147.057983,548.907104 1147.528320,548.961487 1147.764160,548.980713 
	C1148.000000,565.354248 1148.000000,581.708435 1148.000000,598.531372 
z"/>
<path fill="#EC800C" opacity="1.000000" stroke="none" 
	d="
M605.545898,1.000000 
	C610.873169,1.402797 615.746338,1.805595 620.495605,2.601772 
	C619.272156,3.282151 618.172546,3.569151 617.072937,3.856148 
	C610.219238,3.110282 603.365540,2.364418 596.255920,1.309277 
	C599.030579,1.000000 602.061218,1.000000 605.545898,1.000000 
z"/>
<path fill="#EB7E0D" opacity="1.000000" stroke="none" 
	d="
M621.087280,1145.066162 
	C616.190369,1145.453491 611.293457,1145.840820 606.198242,1146.614014 
	C602.969421,1147.000000 599.938782,1147.000000 596.454102,1147.000000 
	C599.989502,1146.325073 603.970886,1145.595947 607.971436,1144.994141 
	C610.709106,1144.582275 613.473450,1144.347900 616.888550,1144.348511 
	C618.729980,1144.797241 619.908630,1144.931641 621.087280,1145.066162 
z"/>
<path fill="#FFFFFF" opacity="1.000000" stroke="none" 
	d="
M372.999634,363.984039 
	C371.329437,353.968262 369.121246,344.433136 368.150085,334.773621 
	C367.142700,324.754028 366.863098,314.603149 367.095154,304.528839 
	C367.623596,281.585938 372.800018,259.525421 380.981903,238.139053 
	C388.146851,219.410858 398.088959,202.211105 410.304871,186.384827 
	C422.125214,171.070999 435.894714,157.608215 451.522369,146.187469 
	C471.527161,131.567871 493.256927,120.195564 517.355774,114.064140 
	C529.255737,111.036476 541.417175,108.783669 553.591614,107.171432 
	C562.729614,105.961311 572.075012,106.140442 581.331726,106.041458 
	C598.758362,105.855118 615.653015,109.295273 632.347473,113.978706 
	C653.717529,119.973839 673.458618,129.422775 691.712952,141.980270 
	C709.152527,153.977264 724.320312,168.359879 737.553650,184.936172 
	C754.459839,206.113174 766.770081,229.632126 774.056702,255.623306 
	C777.235657,266.962646 779.041748,278.723877 780.893372,290.385315 
	C782.124939,298.141357 783.133118,306.087921 782.858398,313.900604 
	C781.799316,344.016418 776.070435,373.023651 763.261292,400.693939 
	C750.714722,427.796844 733.009888,450.809937 710.912476,470.367432 
	C685.275757,493.057495 655.296082,507.815094 622.008667,516.082581 
	C600.789429,521.352661 579.228394,522.103394 557.730042,520.751282 
	C535.519897,519.354431 514.019043,513.805969 493.431549,504.913300 
	C475.136536,497.010925 458.225281,486.844879 442.910370,474.245300 
	C423.394470,458.189514 407.280975,439.121704 394.540253,417.175049 
	C384.888489,400.549316 378.166443,382.820984 372.999634,363.984039 
z"/>
<path fill="#FFFFFF" opacity="1.000000" stroke="none" 
	d="
M497.399231,641.242432 
	C509.673340,637.631226 521.492188,633.732788 533.569092,630.956726 
	C542.577637,628.886047 551.895203,627.473145 561.118896,627.189148 
	C574.349060,626.781738 587.708862,626.819885 600.850098,628.210510 
	C618.732483,630.102966 635.996094,635.030640 652.728882,641.882324 
	C671.137390,649.420166 688.432312,658.975281 703.723450,671.524597 
	C722.968323,687.318604 739.768799,705.528442 752.626831,727.114563 
	C764.123657,746.415527 772.800110,766.862732 777.291138,788.872192 
	C779.532654,799.857422 780.852905,811.073914 781.867737,822.251343 
	C782.559326,829.868835 782.105835,837.601562 781.979797,845.279846 
	C781.629028,866.644653 776.806274,887.162659 769.378479,907.045593 
	C763.474976,922.848389 755.704773,937.764282 746.064514,951.682983 
	C732.201050,971.699280 715.435181,988.766541 695.724060,1003.108032 
	C678.141663,1015.900818 659.064453,1025.575195 638.419006,1032.147339 
	C624.342041,1036.628662 610.064392,1040.447754 595.168396,1040.982666 
	C583.084778,1041.416626 570.916809,1042.692993 558.924133,1041.781494 
	C535.887573,1040.030884 513.689087,1034.369751 492.317719,1025.183350 
	C473.963654,1017.293823 457.237610,1006.903809 441.966858,994.287903 
	C422.237549,977.988342 406.179169,958.485901 393.505707,936.139832 
	C384.024170,919.421936 377.061188,901.772766 372.709412,883.143982 
	C370.535034,873.836182 369.052887,864.301086 368.133026,854.784180 
	C367.195862,845.087952 366.853912,835.276001 367.095978,825.535706 
	C367.666046,802.598633 372.762268,780.539429 380.947357,759.126343 
	C387.879242,740.991821 397.415283,724.307983 409.095367,708.915894 
	C419.367981,695.378601 431.213531,683.317749 444.578094,672.653931 
	C457.988281,661.953857 472.300903,652.901978 487.800781,645.650452 
	C490.870636,644.214294 493.969360,642.839905 497.399231,641.242432 
z"/>
<path fill="#FABD00" opacity="1.000000" stroke="none" 
	d="
M621.542358,1145.037842 
	C619.908630,1144.931641 618.729980,1144.797241 617.314026,1144.400513 
	C637.745117,1141.323730 657.979370,1136.581543 677.637390,1129.655640 
	C723.745239,1113.410522 764.047058,1087.875244 798.226624,1052.908691 
	C827.908203,1022.543518 850.486389,987.508423 865.999207,947.945068 
	C867.493530,944.133911 869.298462,940.444519 871.404297,936.165955 
	C871.894714,935.069885 871.940125,934.506470 871.985535,933.943115 
	C871.985535,933.943115 872.002625,933.997375 872.254761,934.298035 
	C879.309631,928.925476 886.462219,923.618225 892.848877,917.510010 
	C911.374390,899.791809 929.016113,881.235046 944.657532,860.851990 
	C960.262390,840.516602 974.591736,819.320374 986.592590,796.680298 
	C1000.555481,770.338623 1012.401733,743.094299 1021.348206,714.537292 
	C1029.301636,689.150391 1035.175659,663.356628 1038.836548,637.094238 
	C1041.057495,621.161865 1041.773193,605.019653 1043.429077,588.655151 
	C1043.795410,583.586060 1044.048096,578.830688 1043.958618,574.081726 
	C1043.863892,569.060730 1043.443481,564.045898 1043.095703,558.589478 
	C1042.352539,550.293396 1041.825684,542.420288 1040.973022,534.582581 
	C1039.397583,520.099182 1038.367065,505.503571 1035.780151,491.195068 
	C1031.417236,467.063690 1025.032593,443.403046 1017.026184,420.169312 
	C1007.493164,392.505432 995.219482,366.072296 980.774841,340.747253 
	C963.319519,310.143463 942.502258,281.767700 918.337524,256.110992 
	C904.833801,241.773529 889.940125,228.742798 875.591492,215.209412 
	C874.749207,214.415009 873.178162,214.393219 871.946289,214.011871 
	C871.946289,214.011887 872.002380,214.002319 872.273804,213.802216 
	C872.124573,213.050461 871.703918,212.498840 871.283203,211.947235 
	C869.486389,207.896225 867.585693,203.887711 865.908081,199.787949 
	C830.664062,113.660156 769.715454,53.530300 682.778564,20.466251 
	C664.587952,13.547958 645.060791,10.131655 626.122742,5.204701 
	C623.453674,4.510311 620.630981,4.406368 617.476196,3.942643 
	C618.172546,3.569151 619.272156,3.282151 620.732605,2.967192 
	C631.869324,3.956748 642.669006,4.774060 653.413452,6.055297 
	C661.968933,7.075504 670.557495,8.211777 678.954651,10.087622 
	C698.604004,14.477113 718.334656,18.679516 737.693420,24.155752 
	C774.927551,34.688618 810.425354,49.702515 844.582581,67.886414 
	C871.827087,82.390282 897.625549,99.129845 922.257507,117.712128 
	C948.317627,137.371918 972.425293,159.268417 994.453247,183.256409 
	C1009.739990,199.903336 1024.107178,217.508026 1037.679688,235.589783 
	C1059.448364,264.590851 1077.712402,295.840851 1093.233276,328.637665 
	C1107.093750,357.925903 1118.567505,388.153595 1126.876343,419.467163 
	C1131.580444,437.195557 1135.521606,455.167175 1138.864990,473.203735 
	C1141.899780,489.576233 1143.926147,506.153748 1145.869873,522.702820 
	C1146.851318,531.059204 1146.666016,539.552734 1147.033203,548.445679 
	C1147.038452,565.320129 1147.019043,581.733215 1147.028809,598.619568 
	C1145.381226,617.912170 1144.091919,636.775757 1141.947021,655.541565 
	C1137.455933,694.836365 1127.080322,732.782715 1113.853760,769.921509 
	C1105.111328,794.469604 1094.529175,818.293884 1082.282837,841.342529 
	C1065.880371,872.213440 1046.827026,901.384033 1025.386230,928.952637 
	C1017.218628,939.454529 1008.245422,949.362061 999.229675,959.163635 
	C989.452759,969.792664 979.823425,980.692627 969.014648,990.207642 
	C949.940979,1006.998047 930.577881,1023.563049 910.322998,1038.883179 
	C881.252930,1060.871094 849.557556,1078.735352 816.513367,1094.139282 
	C788.779480,1107.067749 760.246521,1117.936646 730.698425,1125.880005 
	C713.613220,1130.472900 696.344421,1134.543335 678.967224,1137.843140 
	C662.774841,1140.917847 646.336243,1142.709351 629.989014,1144.941040 
	C627.370850,1145.298462 624.663574,1145.003174 621.542358,1145.037842 
z"/>
<path fill="#FFFFFF" opacity="1.000000" stroke="none" 
	d="
M277.940887,935.549438 
	C263.684143,922.886597 248.718338,910.546753 235.431503,896.606628 
	C212.002716,872.025635 191.390991,845.161316 173.887878,815.909973 
	C156.801865,787.355713 142.660263,757.561768 131.859314,726.069092 
	C124.182343,703.685120 117.867851,680.989868 114.108009,657.665955 
	C111.513206,641.569275 109.648659,625.331970 108.106308,609.095886 
	C106.890915,596.301636 105.827202,583.388794 106.203926,570.572937 
	C106.719780,553.023499 108.507469,535.502502 110.031738,517.993835 
	C112.361916,491.227997 118.520691,465.199249 126.050369,439.497070 
	C133.922119,412.627258 144.301483,386.676544 157.131470,361.817078 
	C170.303864,336.294159 185.174622,311.740631 203.254852,289.313599 
	C211.989899,278.478546 220.583588,267.431519 230.276337,257.489624 
	C244.760681,242.632935 260.159332,228.667709 275.166351,214.320465 
	C275.885803,213.632690 276.579468,212.917999 277.617615,212.159546 
	C275.536896,220.957428 272.672699,229.718369 270.818176,238.688065 
	C268.158630,251.551605 265.370483,264.490601 264.211975,277.537231 
	C262.678528,294.806213 261.572296,312.257202 262.314484,329.542755 
	C263.025055,346.090332 265.799408,362.619415 268.645538,378.986450 
	C271.832764,397.315094 277.794342,414.928650 284.964478,432.111816 
	C294.350128,454.604553 305.856354,475.860107 320.065216,495.746643 
	C332.186493,512.711426 345.689270,528.428101 361.096741,542.325012 
	C372.822754,552.901428 385.730255,562.167908 398.112854,572.016235 
	C398.744873,572.518921 399.384338,573.012207 400.487671,573.875610 
	C395.008759,577.983398 389.766266,581.937927 384.498749,585.858826 
	C368.177521,598.007751 353.663269,612.045105 340.131134,627.228577 
	C327.624207,641.261719 316.595551,656.278259 306.898346,672.359375 
	C293.893036,693.926392 283.478516,716.621094 275.966797,740.667542 
	C270.884918,756.935669 267.452118,773.509949 264.836426,790.363892 
	C261.541779,811.592712 261.036835,832.942993 262.268860,854.174500 
	C263.840271,881.254822 268.498047,907.993225 277.922363,933.659607 
	C278.085907,934.104919 277.972321,934.651978 277.940887,935.549438 
z"/>
<path fill="#FFFFFF" opacity="1.000000" stroke="none" 
	d="
M1043.165161,588.971680 
	C1041.773193,605.019653 1041.057495,621.161865 1038.836548,637.094238 
	C1035.175659,663.356628 1029.301636,689.150391 1021.348206,714.537292 
	C1012.401733,743.094299 1000.555481,770.338623 986.592590,796.680298 
	C974.591736,819.320374 960.262390,840.516602 944.657532,860.851990 
	C929.016113,881.235046 911.374390,899.791809 892.848877,917.510010 
	C886.462219,923.618225 879.309631,928.925476 872.226807,934.293152 
	C874.298523,925.269043 877.061218,916.636047 878.900879,907.810669 
	C881.316345,896.223145 883.447998,884.538330 884.884888,872.795410 
	C886.419067,860.258423 888.030273,847.582947 887.761902,835.007385 
	C887.346863,815.558289 885.800049,796.172668 882.245239,776.880676 
	C876.355530,744.917053 865.804504,714.726807 850.515625,686.212463 
	C841.082336,668.619202 830.385315,651.741150 817.150940,636.637573 
	C810.333252,628.856934 804.201538,620.332275 796.611206,613.401733 
	C781.448608,599.557068 765.494507,586.579285 750.124512,573.463135 
	C759.751831,565.993713 770.672729,558.132019 780.862427,549.415649 
	C788.599487,542.797363 795.401489,535.086853 802.627563,527.870361 
	C818.430054,512.088745 831.423828,494.122498 842.921997,475.094299 
	C856.343811,452.882721 867.338379,429.468323 874.110107,404.356018 
	C878.061584,389.702606 881.343750,374.806519 883.815308,359.836060 
	C885.759521,348.059631 886.370789,336.018433 886.893799,324.065033 
	C887.389404,312.739166 887.684998,301.324036 886.851868,290.037964 
	C885.295227,268.951233 881.599548,248.150726 875.931030,227.743958 
	C874.725220,223.402878 873.312378,219.119339 871.970581,214.410583 
	C873.178162,214.393219 874.749207,214.415009 875.591492,215.209412 
	C889.940125,228.742798 904.833801,241.773529 918.337524,256.110992 
	C942.502258,281.767700 963.319519,310.143463 980.774841,340.747253 
	C995.219482,366.072296 1007.493164,392.505432 1017.026184,420.169312 
	C1025.032593,443.403046 1031.417236,467.063690 1035.780151,491.195068 
	C1038.367065,505.503571 1039.397583,520.099182 1040.973022,534.582581 
	C1041.825684,542.420288 1042.352539,550.293396 1043.025635,559.052002 
	C1043.071899,569.626160 1043.118530,579.298889 1043.165161,588.971680 
z"/>
<path fill="#FFFFFF" opacity="1.000000" stroke="none" 
	d="
M871.669922,934.052979 
	C871.940125,934.506470 871.894714,935.069885 871.566040,935.842773 
	C871.306641,935.422485 871.330444,934.792725 871.669922,934.052979 
z"/>
<path fill="#FFFFFF" opacity="1.000000" stroke="none" 
	d="
M871.159668,212.260117 
	C871.703918,212.498840 872.124573,213.050461 872.265137,213.829330 
	C871.668762,213.562057 871.352417,213.067535 871.159668,212.260117 
z"/>
<path fill="#F69906" opacity="1.000000" stroke="none" 
	d="
M1043.429077,588.655151 
	C1043.118530,579.298889 1043.071899,569.626160 1043.095215,559.490845 
	C1043.443481,564.045898 1043.863892,569.060730 1043.958618,574.081726 
	C1044.048096,578.830688 1043.795410,583.586060 1043.429077,588.655151 
z"/>
</svg>