<?xml version="1.0" standalone="no"?>
<!DOCTYPE svg PUBLIC "-//W3C//DTD SVG 20010904//EN"
 "http://www.w3.org/TR/2001/REC-SVG-20010904/DTD/svg10.dtd">
<svg version="1.0" xmlns="http://www.w3.org/2000/svg"
 width="156.000000pt" height="88.000000pt" viewBox="0 0 156.000000 88.000000"
 preserveAspectRatio="xMidYMid meet">

<g transform="translate(0.000000,88.000000) scale(0.100000,-0.100000)"
fill="#000000" stroke="none">
<path d="M1012 865 c-64 -28 -79 -127 -27 -177 l23 -23 -51 -25 c-66 -32 -97
-77 -97 -139 0 -110 18 -121 204 -121 79 0 145 5 160 11 34 16 50 59 44 120
-7 64 -31 98 -95 129 l-51 25 23 23 c53 51 36 145 -30 176 -40 19 -60 20 -103
1z m98 -55 c11 -11 20 -31 20 -45 0 -14 -9 -34 -20 -45 -40 -40 -110 -11 -110
47 0 57 69 84 110 43z m16 -211 c61 -16 86 -49 82 -108 l-3 -46 -142 -3 -143
-3 0 54 c0 61 21 88 80 105 48 14 74 14 126 1z"/>
<path d="M321 242 c-1 -16 -5 -21 -13 -16 -8 5 -7 0 2 -11 13 -16 15 -16 18
-2 2 10 1 25 -1 35 -3 12 -5 11 -6 -6z"/>
<path d="M532 230 c0 -19 2 -27 5 -17 2 9 2 25 0 35 -3 9 -5 1 -5 -18z"/>
<path d="M732 230 c0 -19 2 -27 5 -17 2 9 2 25 0 35 -3 9 -5 1 -5 -18z"/>
<path d="M782 230 c0 -19 2 -27 5 -17 2 9 2 25 0 35 -3 9 -5 1 -5 -18z"/>
<path d="M1000 250 c0 -5 5 -10 11 -10 5 0 7 5 4 10 -3 6 -8 10 -11 10 -2 0
-4 -4 -4 -10z"/>
<path d="M1538 253 c7 -3 16 -2 19 1 4 3 -2 6 -13 5 -11 0 -14 -3 -6 -6z"/>
<path d="M215 230 c10 -11 20 -20 23 -20 3 0 -3 9 -13 20 -10 11 -20 20 -23
20 -3 0 3 -9 13 -20z"/>
<path d="M675 220 c3 -5 8 -10 11 -10 2 0 4 5 4 10 0 6 -5 10 -11 10 -5 0 -7
-4 -4 -10z"/>
<path d="M1035 210 c3 -5 8 -10 11 -10 2 0 4 5 4 10 0 6 -5 10 -11 10 -5 0 -7
-4 -4 -10z"/>
<path d="M1238 203 c7 -3 16 -2 19 1 4 3 -2 6 -13 5 -11 0 -14 -3 -6 -6z"/>
<path d="M18 71 c-2 -16 -1 -37 3 -47 7 -18 8 -18 9 1 1 11 3 30 4 43 4 34
-11 37 -16 3z"/>
<path d="M182 95 c4 -4 3 -14 -3 -22 -9 -10 -8 -13 0 -13 7 0 9 -4 6 -10 -3
-6 1 -7 9 -4 18 7 23 -21 6 -29 -6 -3 -5 -4 2 -3 7 1 15 13 16 27 5 29 21 51
33 43 5 -3 9 0 9 5 0 6 -12 11 -27 10 -16 0 -22 -3 -15 -6 10 -4 10 -8 1 -19
-15 -18 -33 -18 -26 1 4 8 1 17 -6 21 -7 4 -9 4 -5 -1z"/>
<path d="M367 84 c4 -10 0 -22 -9 -28 -10 -7 -12 -18 -7 -31 7 -20 8 -20 8 1
1 11 12 27 25 34 14 7 28 20 31 28 5 12 1 12 -15 -3 -18 -16 -20 -16 -20 -2 0
10 -4 17 -10 17 -5 0 -7 -7 -3 -16z"/>
<path d="M506 84 c-5 -14 -4 -15 9 -4 17 14 19 20 6 20 -5 0 -12 -7 -15 -16z"/>
<path d="M550 96 c0 -2 7 -9 15 -16 13 -11 14 -10 9 4 -5 14 -24 23 -24 12z"/>
<path d="M675 89 c-24 -5 -20 -7 23 -8 28 0 52 1 52 3 0 8 -47 11 -75 5z"/>
<path d="M818 88 c-2 -7 -1 -29 3 -48 6 -34 6 -33 8 13 1 46 -3 59 -11 35z"/>
<path d="M855 89 c-16 -6 -14 -8 13 -8 33 -1 41 4 20 12 -7 2 -22 1 -33 -4z"/>
<path d="M983 78 c-2 -16 1 -18 10 -9 7 7 8 14 1 21 -6 6 -10 2 -11 -12z"/>
<path d="M1010 89 c0 -5 5 -7 10 -4 17 10 11 -7 -6 -20 -16 -11 -16 -12 -1
-18 9 -3 16 -2 14 2 -1 5 3 10 8 11 16 2 18 -32 3 -42 -10 -8 -10 -9 2 -5 20
5 26 47 8 58 -11 7 -10 11 2 19 12 8 9 10 -12 10 -16 0 -28 -5 -28 -11z"/>
<path d="M1210 80 c0 -25 -17 -27 -22 -2 -3 15 -4 14 -9 -3 -3 -11 -2 -31 2
-45 7 -24 7 -24 8 -2 1 24 16 30 24 10 3 -7 6 4 6 25 1 20 -1 37 -4 37 -3 0
-5 -9 -5 -20z"/>
<path d="M1343 55 c0 -27 2 -38 4 -22 2 15 2 37 0 50 -2 12 -4 0 -4 -28z"/>
<path d="M1466 84 c-5 -14 -4 -15 9 -4 17 14 19 20 6 20 -5 0 -12 -7 -15 -16z"/>
<path d="M1306 77 c3 -10 9 -15 12 -12 3 3 0 11 -7 18 -10 9 -11 8 -5 -6z"/>
<path d="M1366 73 c-6 -14 -5 -15 5 -6 7 7 10 15 7 18 -3 3 -9 -2 -12 -12z"/>
<path d="M248 43 c5 -21 7 -23 10 -9 2 10 0 22 -6 28 -6 6 -7 0 -4 -19z"/>
<path d="M852 50 c0 -14 2 -19 5 -12 2 6 2 18 0 25 -3 6 -5 1 -5 -13z"/>
<path d="M50 51 c0 -6 5 -13 10 -16 6 -4 8 -10 6 -14 -3 -4 1 -8 9 -8 8 0 15
4 15 8 0 4 3 14 6 23 5 12 0 16 -20 16 -14 0 -26 -4 -26 -9z m40 -5 c0 -11
-19 -15 -25 -6 -3 5 1 10 9 10 9 0 16 -2 16 -4z"/>
<path d="M671 53 c-1 -6 -4 -20 -7 -30 -5 -17 -5 -17 6 0 6 10 9 23 6 30 -3 9
-5 9 -5 0z"/>
<path d="M732 35 c0 -17 2 -22 5 -12 2 9 2 23 0 30 -3 6 -5 -1 -5 -18z"/>
<path d="M412 30 c0 -14 2 -19 5 -12 2 6 2 18 0 25 -3 6 -5 1 -5 -13z"/>
<path d="M530 39 c0 -5 5 -7 10 -4 6 3 10 8 10 11 0 2 -4 4 -10 4 -5 0 -10 -5
-10 -11z"/>
<path d="M981 34 c0 -11 3 -14 6 -6 3 7 2 16 -1 19 -3 4 -6 -2 -5 -13z"/>
<path d="M1460 30 c0 -26 6 -26 13 0 3 11 1 20 -4 20 -5 0 -9 -9 -9 -20z"/>
<path d="M1537 30 c3 -11 7 -20 9 -20 2 0 4 9 4 20 0 11 -4 20 -9 20 -5 0 -7
-9 -4 -20z"/>
<path d="M881 24 c0 -11 3 -14 6 -6 3 7 2 16 -1 19 -3 4 -6 -2 -5 -13z"/>
<path d="M1150 19 c0 -5 5 -7 10 -4 6 3 10 8 10 11 0 2 -4 4 -10 4 -5 0 -10
-5 -10 -11z"/>
</g>
</svg>
